HIERARCHY
ROOT joint_0
{
	OFFSET 0.000000 0.000000 0.000000
	CHANNELS 6 Xposition Yposition Zposition Zrotation Yrotation Xrotation 
	JOINT joint_1
	{
		OFFSET 6.579712 -2.778931 100.531982
		CHANNELS 3 Zrotation Yrotation Xrotation
		JOINT joint_2
		{
			OFFSET -3.313232 -1.302856 91.974976
			CHANNELS 3 Zrotation Yrotation Xrotation
			JOINT joint_3
			{
				OFFSET -3.421509 -1.641846 91.864014
				CHANNELS 3 Zrotation Yrotation Xrotation
				JOINT joint_4
				{
					OFFSET 7.697388 -4.642578 123.278931
					CHANNELS 3 Zrotation Yrotation Xrotation
					JOINT joint_5
					{
						OFFSET 24.842529 -5.941528 79.695068
						CHANNELS 3 Zrotation Yrotation Xrotation
						End Site
						{
							OFFSET 0.000000 0.000000 0.000000
						}
					}
				}
				JOINT joint_6
				{
					OFFSET -0.159668 -29.112976 68.364014
					CHANNELS 3 Zrotation Yrotation Xrotation
					JOINT joint_7
					{
						OFFSET -18.356079 -115.987061 -20.069092
						CHANNELS 3 Zrotation Yrotation Xrotation
						JOINT joint_8
						{
							OFFSET 31.719482 -11.733276 -267.170898
							CHANNELS 3 Zrotation Yrotation Xrotation
							JOINT joint_9
							{
								OFFSET 29.329956 -5.879517 -234.654053
								CHANNELS 3 Zrotation Yrotation Xrotation
								End Site
								{
									OFFSET 0.000000 0.000000 0.000000
								}
							}
						}
					}
				}
				JOINT joint_10
				{
					OFFSET 8.802979 23.897949 69.798950
					CHANNELS 3 Zrotation Yrotation Xrotation
					JOINT joint_11
					{
						OFFSET 21.159058 115.524292 -19.981934
						CHANNELS 3 Zrotation Yrotation Xrotation
						JOINT joint_12
						{
							OFFSET 18.809204 5.403442 -268.593018
							CHANNELS 3 Zrotation Yrotation Xrotation
							JOINT joint_13
							{
								OFFSET 20.807861 0.421265 -235.639038
								CHANNELS 3 Zrotation Yrotation Xrotation
								End Site
								{
									OFFSET 0.000000 0.000000 0.000000
								}
							}
						}
					}
				}
			}
		}
	}
	JOINT joint_14
	{
		OFFSET -9.713379 -79.513916 -99.348022
		CHANNELS 3 Zrotation Yrotation Xrotation
		JOINT joint_15
		{
			OFFSET -40.607788 -6.518372 -502.938019
			CHANNELS 3 Zrotation Yrotation Xrotation
			JOINT joint_16
			{
				OFFSET -19.807617 -7.437378 -399.590012
				CHANNELS 3 Zrotation Yrotation Xrotation
				JOINT joint_17
				{
					OFFSET 171.701660 -44.751282 -77.782000
					CHANNELS 3 Zrotation Yrotation Xrotation
					End Site
					{
						OFFSET 0.000000 0.000000 0.000000
					}
				}
			}
		}
	}
	JOINT joint_18
	{
		OFFSET 17.854858 79.618652 -98.128052
		CHANNELS 3 Zrotation Yrotation Xrotation
		JOINT joint_19
		{
			OFFSET -24.848877 16.861816 -503.722992
			CHANNELS 3 Zrotation Yrotation Xrotation
			JOINT joint_20
			{
				OFFSET -30.162476 14.470093 -398.750008
				CHANNELS 3 Zrotation Yrotation Xrotation
				JOINT joint_21
				{
					OFFSET 176.096680 -10.987549 -80.021000
					CHANNELS 3 Zrotation Yrotation Xrotation
					End Site
					{
						OFFSET 0.000000 0.000000 0.000000
					}
				}
			}
		}
	}
}
MOTION
Frames: 14
Frame Time: 0.016667
-2084.857178 781.496338 1117.812012 1.660904 3.762517 3.058739 -0.109094 -4.420152 1.904731 0.523127 0.628471 -0.427532 0.508138 -0.941763 0.273210 -2.670460 -10.873478 6.218069 0.000000 0.000000 0.000000 -5.501158 7.263901 -7.720879 -9.788428 -0.458563 -6.765475 179.149000 -67.896786 -155.974448 0.000000 0.000000 0.000000 9.457202 9.326323 8.513315 6.009335 10.049653 5.035227 -179.314199 -55.555874 168.174060 0.000000 0.000000 0.000000 3.566570 -6.275948 -7.329218 2.178812 28.261490 6.224470 4.707415 -0.101582 1.907297 0.000000 0.000000 0.000000 2.237887 -1.620526 -2.748255 2.608972 15.931005 3.330445 2.943868 2.943535 1.437362 0.000000 0.000000 0.000000 
-2084.196045 781.838135 1117.688965 1.634742 3.680214 3.079732 -0.178945 -3.870170 2.024082 0.452030 0.578712 -0.448639 0.448561 -0.829386 0.288893 -2.726834 -11.108870 6.390683 0.000000 0.000000 0.000000 -5.485999 6.588505 -7.875500 -9.571014 -1.003164 -6.424391 179.379253 -69.298589 -156.383917 0.000000 0.000000 0.000000 9.362915 7.659426 8.268677 5.816704 9.461341 4.953404 -178.824699 -57.504879 167.240411 0.000000 0.000000 0.000000 3.669423 -7.110394 -7.534092 2.271799 30.088170 6.439989 5.104432 0.273839 2.155686 0.000000 0.000000 0.000000 2.210618 -1.674035 -2.793271 2.600914 16.301877 3.352979 2.958757 2.943328 1.441884 0.000000 0.000000 0.000000 
-2083.923340 782.397583 1117.594971 1.530990 3.624280 3.145798 -0.192981 -3.314559 2.087814 0.425886 0.499558 -0.453879 0.432784 -0.697021 0.310367 -2.792840 -11.251918 6.598634 0.000000 0.000000 0.000000 -5.450653 5.779164 -8.016737 -9.241814 -1.618610 -5.988409 179.649388 -71.184839 -157.070785 0.000000 0.000000 0.000000 9.265315 5.705243 8.042035 5.454519 8.714099 4.525272 -178.509950 -60.237810 166.431851 0.000000 0.000000 0.000000 3.830057 -8.132585 -7.873587 2.423529 32.151857 6.754769 5.636799 0.820855 2.500493 0.000000 0.000000 0.000000 2.205375 -1.881897 -2.918144 2.628915 16.837559 3.372560 3.024309 3.173437 1.482263 0.000000 0.000000 0.000000 
-2083.940918 783.077148 1117.454956 1.388988 3.576611 3.237805 -0.170717 -2.732829 2.117618 0.418245 0.403747 -0.448867 0.432450 -0.554415 0.334400 -2.864546 -11.325005 6.829789 0.000000 0.000000 0.000000 -5.390420 4.851614 -8.141822 -8.810846 -2.254013 -5.499821 179.951680 -73.390490 -158.016603 0.000000 0.000000 0.000000 9.155495 3.698500 7.774850 5.118984 7.795518 4.000224 -178.315577 -63.508746 165.678649 0.000000 0.000000 0.000000 4.020172 -9.316835 -8.326106 2.615246 34.434440 7.165937 6.296627 1.520023 2.932172 0.000000 0.000000 0.000000 2.204149 -2.197055 -3.096278 2.674250 17.525106 3.412076 3.121268 3.483750 1.540474 0.000000 0.000000 0.000000 
-2084.002441 783.682251 1116.990967 1.286740 3.557224 3.321187 -0.161657 -2.151879 2.182961 0.389197 0.322856 -0.464427 0.408277 -0.419476 0.355981 -2.934628 -11.363194 7.064694 0.000000 0.000000 0.000000 -5.324402 3.881156 -8.292935 -8.366190 -2.811376 -5.069300 -179.762149 -75.615400 -159.006698 0.000000 0.000000 0.000000 8.988651 2.097533 7.507582 5.066437 6.839835 3.771511 -178.096750 -66.689807 164.849338 0.000000 0.000000 0.000000 4.205655 -10.738395 -8.946827 2.814121 37.054954 7.810290 7.102549 2.186917 3.407344 0.000000 0.000000 0.000000 2.178287 -2.574160 -3.279852 2.710098 18.345907 3.511481 3.220862 3.479636 1.578573 0.000000 0.000000 0.000000 
-2084.102539 784.124390 1116.128052 1.296228 3.566313 3.416578 -0.192471 -1.567692 2.263675 0.307297 0.270900 -0.490851 0.327117 -0.307819 0.371247 -3.000927 -11.371356 7.296453 0.000000 0.000000 0.000000 -5.242793 2.915126 -8.508802 -7.899499 -3.266894 -4.678109 -179.491521 -77.864257 -160.040788 0.000000 0.000000 0.000000 8.749757 1.052294 7.361604 5.307967 5.928284 3.958700 -177.792840 -69.720772 163.864145 0.000000 0.000000 0.000000 4.383068 -12.473593 -9.846839 3.030731 40.155803 8.809179 8.160640 2.935573 3.993879 0.000000 0.000000 0.000000 2.088285 -3.022423 -3.489309 2.703352 19.365593 3.707131 3.296963 2.946147 1.570930 0.000000 0.000000 0.000000 
-2084.246338 784.492065 1114.941040 1.378599 3.579713 3.541820 -0.222231 -0.944563 2.305994 0.183217 0.215278 -0.497138 0.192312 -0.207970 0.383203 -3.063740 -11.339484 7.521972 0.000000 0.000000 0.000000 -5.152990 1.944237 -8.764527 -7.449842 -3.691755 -4.313045 -179.233502 -80.141045 -161.085056 0.000000 0.000000 0.000000 8.445906 0.309783 7.321756 5.675507 5.067174 4.320007 -177.471563 -72.644666 162.824037 0.000000 0.000000 0.000000 4.512304 -14.397962 -10.955991 3.265617 43.513835 9.966187 9.418338 3.831481 4.687754 0.000000 0.000000 0.000000 1.960773 -3.505476 -3.748292 2.677872 20.505465 3.967512 3.379449 2.136705 1.546331 0.000000 0.000000 0.000000 
-2084.195312 784.862000 1113.376953 1.419294 3.600769 3.651734 -0.210246 -0.302867 2.343083 0.045866 0.144707 -0.487729 0.028710 -0.101072 0.389379 -3.117330 -11.268654 7.729306 0.000000 0.000000 0.000000 -5.072740 0.982880 -9.011238 -7.159309 -4.131453 -4.073169 -179.028814 -82.175798 -161.844009 0.000000 0.000000 0.000000 8.086251 -0.317159 7.297471 6.091069 4.348447 4.640283 -177.137109 -74.928912 161.840384 0.000000 0.000000 0.000000 4.531299 -16.332982 -12.046213 3.479620 46.774317 10.957624 10.602356 4.515668 5.293073 0.000000 0.000000 0.000000 1.876169 -3.928890 -4.009941 2.697690 21.540620 4.233848 3.525122 1.330632 1.547243 0.000000 0.000000 0.000000 
-2083.900879 785.425537 1111.280029 1.388822 3.657450 3.722481 -0.148109 0.333148 2.403537 -0.095472 0.068331 -0.467517 -0.158897 0.021496 0.384813 -3.155600 -11.166738 7.900969 0.000000 0.000000 0.000000 -5.030239 0.054934 -9.241838 -7.108362 -4.547504 -4.091163 -178.915749 -83.880363 -162.100994 0.000000 0.000000 0.000000 7.631805 -0.777723 7.293839 6.568384 3.847734 4.899421 -176.733759 -76.295401 160.858442 0.000000 0.000000 0.000000 4.545211 -18.325141 -13.113064 3.790846 50.107431 11.860956 12.001397 4.873438 5.882361 0.000000 0.000000 0.000000 1.863581 -4.292087 -4.264197 2.791307 22.403170 4.491541 3.770446 0.579350 1.591872 0.000000 0.000000 0.000000 
-2083.412354 785.991150 1108.806030 1.313376 3.722998 3.778757 -0.028376 0.986704 2.454637 -0.249586 -0.021552 -0.429432 -0.382834 0.149165 0.375337 -3.184471 -11.026400 8.051543 0.000000 0.000000 0.000000 -5.005069 -0.862223 -9.463446 -7.183657 -4.967683 -4.229269 -178.846059 -85.368954 -162.059155 0.000000 0.000000 0.000000 7.112796 -1.123539 7.334322 7.083863 3.522359 5.097099 -176.268969 -76.974741 159.930381 0.000000 0.000000 0.000000 4.459883 -20.351887 -14.140899 4.094917 53.384253 12.584631 13.280282 4.959458 6.347825 0.000000 0.000000 0.000000 1.896444 -4.597820 -4.523206 2.925501 23.165787 4.760357 4.076120 -0.182381 1.659205 0.000000 0.000000 0.000000 
-2082.649902 786.059143 1106.364990 1.098689 3.762194 3.808534 0.168175 1.647059 2.506533 -0.377024 -0.138713 -0.398981 -0.592084 0.278022 0.379101 -3.215445 -10.834566 8.217285 0.000000 0.000000 0.000000 -4.947140 -1.834213 -9.648310 -7.227603 -5.504643 -4.190527 -178.740376 -86.663461 -162.057754 0.000000 0.000000 0.000000 6.634856 -1.647819 7.340103 7.569183 3.258879 5.077919 -175.819871 -77.179844 159.306945 0.000000 0.000000 0.000000 4.046053 -22.222911 -14.831316 4.072994 55.940644 12.695838 13.066358 4.425222 6.124767 0.000000 0.000000 0.000000 1.995801 -4.802828 -4.728814 3.093979 23.833583 5.024201 4.390054 -0.894570 1.733166 0.000000 0.000000 0.000000 
-2081.646240 785.451050 1104.042969 0.636424 3.792740 3.798066 0.449046 2.281046 2.570563 -0.430284 -0.281972 -0.401147 -0.730330 0.423711 0.405230 -3.256889 -10.572281 8.429159 0.000000 0.000000 0.000000 -4.808165 -2.919044 -9.741821 -7.180227 -6.210362 -3.866128 -178.575057 -87.724066 -162.301469 0.000000 0.000000 0.000000 6.208608 -2.520307 7.247208 8.040220 3.020002 4.771672 -175.374576 -76.759346 159.048170 0.000000 0.000000 0.000000 3.121689 -23.965554 -14.999381 3.501378 57.661152 11.965229 10.413134 2.667017 4.716717 0.000000 0.000000 0.000000 2.203574 -4.891514 -4.850714 3.329567 24.355688 5.259308 4.717993 -1.555547 1.817289 0.000000 0.000000 0.000000 
-2080.368408 784.345337 1101.754028 -0.008121 3.826390 3.745162 0.760460 2.872222 2.653004 -0.421772 -0.428634 -0.422704 -0.797251 0.578213 0.442554 -3.300263 -10.262263 8.654703 0.000000 0.000000 0.000000 -4.631164 -4.075916 -9.769858 -7.101214 -7.006366 -3.395944 -178.385754 -88.589453 -162.603224 0.000000 0.000000 0.000000 5.823853 -3.585335 7.090438 8.468035 2.822799 4.288603 -174.931107 -75.888513 159.098626 0.000000 0.000000 0.000000 1.998575 -25.546462 -14.786569 2.659402 58.500433 10.817146 6.601151 0.042765 2.634156 0.000000 0.000000 0.000000 2.489862 -4.909696 -4.901743 3.619758 24.790224 5.482403 5.058912 -2.183469 1.909528 0.000000 0.000000 0.000000 
-2078.638672 782.781616 1099.659058 -0.699876 3.845344 3.639775 1.002943 3.392132 2.791729 -0.381659 -0.541890 -0.461739 -0.787691 0.702647 0.487357 -3.329371 -9.947298 8.833915 0.000000 0.000000 0.000000 -4.502659 -5.220899 -9.826128 -7.024169 -7.801254 -2.852950 -178.193192 -89.391572 -162.711730 0.000000 0.000000 0.000000 5.552654 -4.614633 6.922104 8.729901 2.621227 3.755246 -174.598712 -75.261915 159.551058 0.000000 0.000000 0.000000 1.132761 -26.756674 -14.390943 1.881814 58.096790 9.789355 3.227531 -2.330767 0.740840 0.000000 0.000000 0.000000 2.778248 -4.932711 -4.870315 3.904839 25.310000 5.730308 5.356626 -2.753694 1.988726 0.000000 0.000000 0.000000 
